<svg width="9" height="9" viewBox="0 0 9 9" fill="none" xmlns="http://www.w3.org/2000/svg">
<g id="Frame 2">
<path id="Arrow 1" d="M0.353554 7.21751L7.7486e-07 7.57107L0.707108 8.27817L1.06066 7.92462L0.707108 7.57107L0.353554 7.21751ZM8.27818 0.5C8.27818 0.223858 8.05432 1.27766e-07 7.77818 1.27766e-07L3.27818 1.27766e-07C3.00203 1.27766e-07 2.77818 0.223858 2.77818 0.5C2.77818 0.776142 3.00203 1 3.27818 1H7.27818V5C7.27818 5.27614 7.50203 5.5 7.77818 5.5C8.05432 5.5 8.27818 5.27614 8.27818 5L8.27818 0.5ZM0.707108 7.57107L1.06066 7.92462L8.13173 0.853554L7.77818 0.5L7.42462 0.146447L0.353554 7.21751L0.707108 7.57107Z" fill="#697384"/>
</g>
</svg>
