<svg width="117" height="32" viewBox="0 0 117 32" fill="none" xmlns="http://www.w3.org/2000/svg">
<circle cx="16" cy="16" r="5" stroke="#0CADFF" stroke-width="2"/>
<path d="M26 2C28.2091 2 30 3.79086 30 6C30 8.20914 28.2091 10 26 10C23.7909 10 22 8.20914 22 6C22 3.79086 23.7909 2 26 2ZM26 4C24.8954 4 24 4.89543 24 6C24 7.10457 24.8954 8 26 8C27.1046 8 28 7.10457 28 6C28 4.89543 27.1046 4 26 4Z" fill="#194BFD"/>
<path d="M23.1689 3.03009C20.0525 1.25586 16.4174 0.61706 12.8829 1.22254C9.34838 1.82802 6.13315 3.64031 3.78504 6.35063C1.43693 9.06095 0.101227 12.5016 0.00552124 16.0863C-0.0901849 19.6711 1.06003 23.1781 3.26017 26.0098C5.46032 28.8416 8.57427 30.8228 12.0714 31.6161C15.5686 32.4093 19.2327 31.9653 22.4392 30.3599C25.6458 28.7545 28.1965 26.0869 29.6567 22.8117C31.117 19.5364 31.3964 15.8562 30.4474 12.3981L28.2053 13.0133C29.0119 15.9528 28.7744 19.081 27.5332 21.8649C26.292 24.6489 24.1239 26.9163 21.3983 28.2809C18.6728 29.6455 15.5583 30.0229 12.5857 29.3486C9.61313 28.6744 6.96627 26.9903 5.09615 24.5833C3.22602 22.1764 2.24834 19.1954 2.32969 16.1484C2.41104 13.1014 3.54639 10.1768 5.54228 7.87304C7.53818 5.56927 10.2711 4.02882 13.2755 3.51416C16.2798 2.9995 19.3697 3.54248 22.0185 5.05058L23.1689 3.03009Z" fill="#3880FF"/>
<path d="M41.9261 23V12.0909H44.9517V23H41.9261ZM43.446 10.6847C42.9962 10.6847 42.6103 10.5355 42.2884 10.2372C41.9711 9.93419 41.8125 9.57197 41.8125 9.15057C41.8125 8.7339 41.9711 8.37642 42.2884 8.07812C42.6103 7.77509 42.9962 7.62358 43.446 7.62358C43.8958 7.62358 44.2794 7.77509 44.5966 8.07812C44.9186 8.37642 45.0795 8.7339 45.0795 9.15057C45.0795 9.57197 44.9186 9.93419 44.5966 10.2372C44.2794 10.5355 43.8958 10.6847 43.446 10.6847ZM51.3043 23.2131C50.2011 23.2131 49.247 22.9787 48.4421 22.5099C47.6419 22.0365 47.024 21.3783 46.5884 20.5355C46.1528 19.688 45.935 18.7055 45.935 17.5881C45.935 16.4612 46.1528 15.4763 46.5884 14.6335C47.024 13.786 47.6419 13.1278 48.4421 12.6591C49.247 12.1856 50.2011 11.9489 51.3043 11.9489C52.4076 11.9489 53.3593 12.1856 54.1594 12.6591C54.9644 13.1278 55.5846 13.786 56.0202 14.6335C56.4558 15.4763 56.6737 16.4612 56.6737 17.5881C56.6737 18.7055 56.4558 19.688 56.0202 20.5355C55.5846 21.3783 54.9644 22.0365 54.1594 22.5099C53.3593 22.9787 52.4076 23.2131 51.3043 23.2131ZM51.3185 20.8693C51.8204 20.8693 52.2395 20.7273 52.5756 20.4432C52.9118 20.1544 53.1651 19.7614 53.3356 19.2642C53.5108 18.767 53.5984 18.2012 53.5984 17.5668C53.5984 16.9323 53.5108 16.3665 53.3356 15.8693C53.1651 15.3722 52.9118 14.9792 52.5756 14.6903C52.2395 14.4015 51.8204 14.2571 51.3185 14.2571C50.8119 14.2571 50.3858 14.4015 50.0401 14.6903C49.6992 14.9792 49.4412 15.3722 49.266 15.8693C49.0955 16.3665 49.0103 16.9323 49.0103 17.5668C49.0103 18.2012 49.0955 18.767 49.266 19.2642C49.4412 19.7614 49.6992 20.1544 50.0401 20.4432C50.3858 20.7273 50.8119 20.8693 51.3185 20.8693ZM60.6665 16.6932V23H57.641V12.0909H60.5245V14.0156H60.6523C60.8938 13.3812 61.2987 12.8793 61.8668 12.5099C62.435 12.1359 63.1239 11.9489 63.9336 11.9489C64.6912 11.9489 65.3517 12.1146 65.9151 12.446C66.4786 12.7775 66.9165 13.2509 67.229 13.8665C67.5415 14.4773 67.6978 15.2064 67.6978 16.054V23H64.6722V16.5938C64.677 15.9261 64.5065 15.4053 64.1609 15.0312C63.8152 14.6525 63.3394 14.4631 62.7333 14.4631C62.3261 14.4631 61.9663 14.5507 61.6538 14.7259C61.346 14.901 61.1045 15.1567 60.9293 15.4929C60.7589 15.8243 60.6713 16.2244 60.6665 16.6932ZM69.0824 23V12.0909H72.108V23H69.0824ZM70.6023 10.6847C70.1525 10.6847 69.7666 10.5355 69.4446 10.2372C69.1274 9.93419 68.9688 9.57197 68.9688 9.15057C68.9688 8.7339 69.1274 8.37642 69.4446 8.07812C69.7666 7.77509 70.1525 7.62358 70.6023 7.62358C71.0521 7.62358 71.4356 7.77509 71.7528 8.07812C72.0748 8.37642 72.2358 8.7339 72.2358 9.15057C72.2358 9.57197 72.0748 9.93419 71.7528 10.2372C71.4356 10.5355 71.0521 10.6847 70.6023 10.6847ZM78.4606 23.2131C77.3432 23.2131 76.382 22.9763 75.5771 22.5028C74.7769 22.0246 74.1613 21.3617 73.7305 20.5142C73.3043 19.6667 73.0913 18.6913 73.0913 17.5881C73.0913 16.4706 73.3067 15.4905 73.7376 14.6477C74.1732 13.8002 74.7911 13.1397 75.5913 12.6662C76.3915 12.188 77.3432 11.9489 78.4464 11.9489C79.3981 11.9489 80.2314 12.1217 80.9464 12.4673C81.6613 12.813 82.2272 13.2983 82.6438 13.9233C83.0605 14.5483 83.2901 15.2822 83.3327 16.125H80.4776C80.3971 15.5805 80.1841 15.1425 79.8384 14.8111C79.4975 14.4749 79.0501 14.3068 78.4961 14.3068C78.0273 14.3068 77.6178 14.4347 77.2674 14.6903C76.9218 14.9413 76.6519 15.3082 76.4577 15.7912C76.2636 16.2741 76.1665 16.8589 76.1665 17.5455C76.1665 18.2415 76.2612 18.8333 76.4506 19.321C76.6448 19.8087 76.917 20.1804 77.2674 20.4361C77.6178 20.6918 78.0273 20.8196 78.4961 20.8196C78.8417 20.8196 79.1519 20.7486 79.4265 20.6065C79.7058 20.4645 79.9355 20.2585 80.1154 19.9886C80.3001 19.714 80.4208 19.3849 80.4776 19.0014H83.3327C83.2854 19.8348 83.0581 20.5687 82.6509 21.2031C82.2485 21.8329 81.6921 22.3253 80.9819 22.6804C80.2717 23.0355 79.4312 23.2131 78.4606 23.2131ZM89.1989 23.2131C88.0956 23.2131 87.1416 22.9787 86.3366 22.5099C85.5365 22.0365 84.9186 21.3783 84.483 20.5355C84.0473 19.688 83.8295 18.7055 83.8295 17.5881C83.8295 16.4612 84.0473 15.4763 84.483 14.6335C84.9186 13.786 85.5365 13.1278 86.3366 12.6591C87.1416 12.1856 88.0956 11.9489 89.1989 11.9489C90.3021 11.9489 91.2538 12.1856 92.054 12.6591C92.8589 13.1278 93.4792 13.786 93.9148 14.6335C94.3504 15.4763 94.5682 16.4612 94.5682 17.5881C94.5682 18.7055 94.3504 19.688 93.9148 20.5355C93.4792 21.3783 92.8589 22.0365 92.054 22.5099C91.2538 22.9787 90.3021 23.2131 89.1989 23.2131ZM89.2131 20.8693C89.715 20.8693 90.134 20.7273 90.4702 20.4432C90.8063 20.1544 91.0597 19.7614 91.2301 19.2642C91.4053 18.767 91.4929 18.2012 91.4929 17.5668C91.4929 16.9323 91.4053 16.3665 91.2301 15.8693C91.0597 15.3722 90.8063 14.9792 90.4702 14.6903C90.134 14.4015 89.715 14.2571 89.2131 14.2571C88.7064 14.2571 88.2803 14.4015 87.9347 14.6903C87.5938 14.9792 87.3357 15.3722 87.1605 15.8693C86.9901 16.3665 86.9048 16.9323 86.9048 17.5668C86.9048 18.2012 86.9901 18.767 87.1605 19.2642C87.3357 19.7614 87.5938 20.1544 87.9347 20.4432C88.2803 20.7273 88.7064 20.8693 89.2131 20.8693ZM98.5611 16.6932V23H95.5355V12.0909H98.419V14.0156H98.5469C98.7884 13.3812 99.1932 12.8793 99.7614 12.5099C100.33 12.1359 101.018 11.9489 101.828 11.9489C102.586 11.9489 103.246 12.1146 103.81 12.446C104.373 12.7775 104.811 13.2509 105.124 13.8665C105.436 14.4773 105.592 15.2064 105.592 16.054V23H102.567V16.5938C102.571 15.9261 102.401 15.4053 102.055 15.0312C101.71 14.6525 101.234 14.4631 100.628 14.4631C100.221 14.4631 99.8608 14.5507 99.5483 14.7259C99.2405 14.901 98.9991 15.1567 98.8239 15.4929C98.6534 15.8243 98.5658 16.2244 98.5611 16.6932ZM116.054 15.2017L113.284 15.3722C113.236 15.1354 113.135 14.9223 112.978 14.733C112.822 14.5388 112.616 14.3849 112.36 14.2713C112.109 14.1529 111.809 14.0938 111.458 14.0938C110.99 14.0938 110.594 14.1932 110.272 14.392C109.95 14.5862 109.789 14.8466 109.789 15.1733C109.789 15.4337 109.894 15.6539 110.102 15.8338C110.31 16.0137 110.668 16.1581 111.174 16.267L113.149 16.6648C114.209 16.8826 115 17.233 115.521 17.7159C116.042 18.1989 116.302 18.8333 116.302 19.6193C116.302 20.3343 116.092 20.9616 115.67 21.5014C115.253 22.0412 114.681 22.4626 113.951 22.7656C113.227 23.0639 112.391 23.2131 111.444 23.2131C110 23.2131 108.85 22.9124 107.993 22.3111C107.14 21.705 106.641 20.8812 106.494 19.8395L109.47 19.6832C109.56 20.1236 109.778 20.4598 110.123 20.6918C110.469 20.919 110.912 21.0327 111.451 21.0327C111.982 21.0327 112.408 20.9309 112.73 20.7273C113.056 20.5189 113.222 20.2514 113.227 19.9247C113.222 19.6501 113.106 19.4252 112.879 19.25C112.652 19.0701 112.301 18.9328 111.828 18.8381L109.939 18.4616C108.873 18.2486 108.08 17.8793 107.559 17.3537C107.043 16.8281 106.785 16.1581 106.785 15.3438C106.785 14.643 106.975 14.0393 107.353 13.5327C107.737 13.026 108.274 12.6354 108.966 12.3608C109.662 12.0862 110.476 11.9489 111.409 11.9489C112.787 11.9489 113.871 12.2401 114.662 12.8224C115.457 13.4048 115.921 14.1979 116.054 15.2017Z" fill="black"/>
</svg>
